<svg width="14" height="14" viewBox="0 0 14 14" fill="none" xmlns="http://www.w3.org/2000/svg">
<g id="Star" clip-path="url(#clip0_2047_112)">
<path id="Star_2" d="M6.80454 1.5302C6.91385 1.26739 7.28615 1.26739 7.39546 1.5302L8.71776 4.70939C8.76384 4.82018 8.86804 4.89589 8.98765 4.90548L12.4198 5.18063C12.7036 5.20338 12.8186 5.55746 12.6025 5.74264L9.98748 7.98264C9.89635 8.0607 9.85655 8.18319 9.88439 8.29991L10.6833 11.6492C10.7494 11.926 10.4482 12.1449 10.2052 11.9965L7.2668 10.2017C7.16439 10.1392 7.0356 10.1392 6.9332 10.2017L3.99476 11.9965C3.75184 12.1449 3.45064 11.926 3.51669 11.6492L4.3156 8.29991C4.34345 8.18319 4.30365 8.0607 4.21252 7.98264L1.59754 5.74264C1.38137 5.55746 1.49642 5.20338 1.78015 5.18063L5.21235 4.90548C5.33196 4.89589 5.43615 4.82018 5.48224 4.70939L6.80454 1.5302Z" fill="#FDB022"/>
</g>
<defs>
<clipPath id="clip0_2047_112">
<rect width="12.8" height="12.8" fill="white" transform="translate(0.700001 0.5)"/>
</clipPath>
</defs>
</svg>
